<svg viewBox="0 0 24 24" fill="none" xmlns="http://www.w3.org/2000/svg">
  <path d="M5 6a3 3 0 0 1 3-3h10.25A1.75 1.75 0 0 1 20 4.75v2.5A1.75 1.75 0 0 1 18.25 9H8a3 3 0 0 0-3 3V6Z" fill="url(#w0)"/>
  <path d="M5 10.52a2.25 2.25 0 0 1 2.25-2.25h11.194L20 7v6.25A1.75 1.75 0 0 1 18.25 15H8a3 3 0 0 0-3 3v-7.48Z" fill="url(#w1)"/>
  <path d="m5 16.545 7-8.545 8 5.053v6.197A1.75 1.75 0 0 1 18.25 21H8a3 3 0 0 1-3-3v-1.455Z" fill="url(#w2)"/>
  <rect x="2" y="10" width="9" height="9" rx="2" fill="url(#w3)"/>
  <path d="m9.5 12-1.077 4.999-1.287.001-.636-3-.666 3H4.535L3.5 12.001h1.061l.639 3.3.634-3.3h1.302l.664 3.3.623-3.3L9.5 12Z" fill="#fff"/>
  <defs>
    <linearGradient id="w0" x1="5" y1="6" x2="20" y2="6" gradientUnits="userSpaceOnUse"><stop stop-color="#8ee8ff"/><stop offset="1" stop-color="#3ac8ff"/></linearGradient>
    <linearGradient id="w1" x1="5" y1="12" x2="20" y2="12" gradientUnits="userSpaceOnUse"><stop stop-color="#5966f3"/><stop offset=".5" stop-color="#257bf9"/><stop offset="1" stop-color="#24abff"/></linearGradient>
    <linearGradient id="w2" x1="7" y1="20" x2="20" y2="12" gradientUnits="userSpaceOnUse"><stop stop-color="#0036c4"/><stop offset="1" stop-color="#3d77ff"/></linearGradient>
    <linearGradient id="w3" x1="2" y1="10" x2="11" y2="19" gradientUnits="userSpaceOnUse"><stop stop-color="#367af2"/><stop offset="1" stop-color="#001a8f"/></linearGradient>
  </defs>
</svg>
